<svg width="140" height="40" viewBox="0 0 140 40" fill="none" xmlns="http://www.w3.org/2000/svg">
<g clip-path="url(#clip0_4_14)">
<rect width="140" height="40" fill="#1F1D1D"/>
<ellipse cx="23" cy="21" rx="20" ry="19" fill="#1A1818"/>
<path d="M22.5 8.0003L22.0125 8.8442L20.8968 10.7849L20.7375 11.066L20.8968 11.3474L28.6218 24.7253H21.1968L21.0375 25.0067L19.9218 26.9567L19.4343 27.791H20.4L32.9625 27.8003L33.9282 27.791L33.4407 26.9471L22.9875 8.8442L22.5 8V8.0003ZM20.4282 11.591L19.9407 12.4349L9.4875 30.5468L9 31.382H12.5439L12.7029 31.1006L20.4279 17.7224L23.9811 23.8634L24.1311 24.1445H27.675L27.1875 23.3102L20.9157 12.4352L20.4282 11.591ZM20.3907 18.8285L19.9125 19.6724L13.6311 30.5378L13.1436 31.3817H36L35.5125 30.5378L34.3968 28.5971L34.2282 28.316H18.459L22.0029 22.1753L22.1622 21.8942L22.0029 21.6128L20.8779 19.6724L20.3904 18.8285H20.3907Z" fill="#8C7B1D"/>
<path d="M17.0994 19.8642H10.8074V22.7988H13.3014V33.292H17.0994V19.8642ZM24.6286 32.6685C25.7478 33.2625 27.0105 33.5615 28.4168 33.5615C29.6461 33.5615 30.7515 33.3432 31.7369 32.9085C32.7203 32.4738 33.5405 31.8464 34.1916 31.0282L31.7743 28.841C30.9049 29.8893 29.8507 30.4145 28.6096 30.4145C27.8799 30.4145 27.2308 30.2552 26.6624 29.9346C26.0939 29.6159 25.6514 29.1636 25.3387 28.5833C25.0259 28.0011 24.8686 27.3324 24.8686 26.5771C24.8686 25.8238 25.0259 25.1551 25.3387 24.5729C25.6514 23.9907 26.0939 23.5403 26.6624 23.2197C27.2308 22.901 27.8799 22.7417 28.6096 22.7417C29.8507 22.7417 30.9049 23.2649 31.7743 24.3132L34.1916 22.1261C33.5405 21.3079 32.7203 20.6824 31.7369 20.2477C30.7515 19.813 29.6461 19.5947 28.4168 19.5947C27.0105 19.5947 25.7478 19.8917 24.6286 20.4877C23.5095 21.0817 22.6303 21.9097 21.991 22.9718C21.3518 24.032 21.0312 25.2357 21.0312 26.5771C21.0312 27.9205 21.3518 29.1223 21.991 30.1844C22.6303 31.2465 23.5095 32.0745 24.6286 32.6685Z" fill="#8C7B1D" stroke="#1B1919" stroke-width="0.393375"/>
<path d="M55.336 9.184L63.144 29.312C63.464 30.1227 63.8267 30.6667 64.232 30.944C64.6373 31.2 65.0107 31.3387 65.352 31.36V32C64.9253 31.9573 64.4027 31.936 63.784 31.936C63.1653 31.9147 62.5467 31.904 61.928 31.904C61.096 31.904 60.3173 31.9147 59.592 31.936C58.8667 31.936 58.28 31.9573 57.832 32V31.36C58.92 31.3173 59.6133 31.136 59.912 30.816C60.2107 30.4747 60.1467 29.76 59.72 28.672L53.768 12.768L54.28 12.352L48.712 26.816C48.3707 27.6693 48.168 28.3947 48.104 28.992C48.04 29.568 48.0933 30.0267 48.264 30.368C48.456 30.7093 48.7653 30.9547 49.192 31.104C49.64 31.2533 50.1947 31.3387 50.856 31.36V32C50.2587 31.9573 49.6293 31.936 48.968 31.936C48.328 31.9147 47.7307 31.904 47.176 31.904C46.6427 31.904 46.184 31.9147 45.8 31.936C45.4373 31.936 45.096 31.9573 44.776 32V31.36C45.2027 31.2533 45.64 31.008 46.088 30.624C46.536 30.2187 46.9413 29.536 47.304 28.576L54.824 9.184C54.9093 9.184 54.9947 9.184 55.08 9.184C55.1653 9.184 55.2507 9.184 55.336 9.184ZM59.24 22.784V23.424H49.704L50.024 22.784H59.24ZM73.7153 9.344V9.984C72.9899 10.0053 72.4353 10.0907 72.0513 10.24C71.6886 10.368 71.4433 10.624 71.3153 11.008C71.1873 11.3707 71.1233 11.9467 71.1233 12.736V28.608C71.1233 29.376 71.1873 29.952 71.3153 30.336C71.4433 30.72 71.6886 30.976 72.0513 31.104C72.4353 31.2107 72.9899 31.264 73.7153 31.264H76.0513C77.0539 31.264 77.8646 31.1573 78.4833 30.944C79.1233 30.7307 79.6246 30.4 79.9873 29.952C80.3713 29.4827 80.6593 28.864 80.8513 28.096C81.0433 27.328 81.1926 26.3893 81.2993 25.28H82.0353C81.9713 25.9413 81.9393 26.816 81.9393 27.904C81.9393 28.3093 81.9499 28.896 81.9713 29.664C82.0139 30.4107 82.0779 31.1893 82.1633 32C81.0753 31.9573 79.8486 31.936 78.4833 31.936C77.1179 31.9147 75.9019 31.904 74.8353 31.904C74.3659 31.904 73.7579 31.904 73.0113 31.904C72.2859 31.904 71.4966 31.9147 70.6433 31.936C69.7899 31.936 68.9259 31.9467 68.0513 31.968C67.1766 31.968 66.3446 31.9787 65.5553 32V31.36C66.2806 31.3173 66.8246 31.232 67.1873 31.104C67.5713 30.976 67.8273 30.72 67.9553 30.336C68.0833 29.952 68.1473 29.376 68.1473 28.608V12.736C68.1473 11.9467 68.0833 11.3707 67.9553 11.008C67.8273 10.624 67.5713 10.368 67.1873 10.24C66.8246 10.0907 66.2806 10.0053 65.5553 9.984V9.344C66.0033 9.36533 66.5899 9.38667 67.3153 9.408C68.0406 9.42933 68.8193 9.44 69.6513 9.44C70.3979 9.44 71.1339 9.42933 71.8593 9.408C72.6059 9.38667 73.2246 9.36533 73.7153 9.344ZM92.2078 9.344V9.984C91.4824 10.0053 90.9278 10.0907 90.5438 10.24C90.1811 10.368 89.9358 10.624 89.8078 11.008C89.6798 11.3707 89.6158 11.9467 89.6158 12.736V28.608C89.6158 29.376 89.6798 29.952 89.8078 30.336C89.9358 30.72 90.1811 30.976 90.5438 31.104C90.9278 31.2107 91.4824 31.264 92.2078 31.264H94.5438C95.5464 31.264 96.3571 31.1573 96.9758 30.944C97.6158 30.7307 98.1171 30.4 98.4798 29.952C98.8638 29.4827 99.1518 28.864 99.3438 28.096C99.5358 27.328 99.6851 26.3893 99.7918 25.28H100.528C100.464 25.9413 100.432 26.816 100.432 27.904C100.432 28.3093 100.442 28.896 100.464 29.664C100.506 30.4107 100.57 31.1893 100.656 32C99.5678 31.9573 98.3411 31.936 96.9758 31.936C95.6104 31.9147 94.3944 31.904 93.3278 31.904C92.8584 31.904 92.2504 31.904 91.5038 31.904C90.7784 31.904 89.9891 31.9147 89.1358 31.936C88.2824 31.936 87.4184 31.9467 86.5438 31.968C85.6691 31.968 84.8371 31.9787 84.0478 32V31.36C84.7731 31.3173 85.3171 31.232 85.6798 31.104C86.0638 30.976 86.3198 30.72 86.4478 30.336C86.5758 29.952 86.6398 29.376 86.6398 28.608V12.736C86.6398 11.9467 86.5758 11.3707 86.4478 11.008C86.3198 10.624 86.0638 10.368 85.6798 10.24C85.3171 10.0907 84.7731 10.0053 84.0478 9.984V9.344C84.4958 9.36533 85.0824 9.38667 85.8078 9.408C86.5331 9.42933 87.3118 9.44 88.1438 9.44C88.8904 9.44 89.6264 9.42933 90.3518 9.408C91.0984 9.38667 91.7171 9.36533 92.2078 9.344ZM111.532 9.184L119.34 29.312C119.66 30.1227 120.023 30.6667 120.428 30.944C120.834 31.2 121.207 31.3387 121.548 31.36V32C121.122 31.9573 120.599 31.936 119.98 31.936C119.362 31.9147 118.743 31.904 118.124 31.904C117.292 31.904 116.514 31.9147 115.788 31.936C115.063 31.936 114.476 31.9573 114.028 32V31.36C115.116 31.3173 115.81 31.136 116.108 30.816C116.407 30.4747 116.343 29.76 115.916 28.672L109.964 12.768L110.476 12.352L104.908 26.816C104.567 27.6693 104.364 28.3947 104.3 28.992C104.236 29.568 104.29 30.0267 104.46 30.368C104.652 30.7093 104.962 30.9547 105.388 31.104C105.836 31.2533 106.391 31.3387 107.052 31.36V32C106.455 31.9573 105.826 31.936 105.164 31.936C104.524 31.9147 103.927 31.904 103.372 31.904C102.839 31.904 102.38 31.9147 101.996 31.936C101.634 31.936 101.292 31.9573 100.972 32V31.36C101.399 31.2533 101.836 31.008 102.284 30.624C102.732 30.2187 103.138 29.536 103.5 28.576L111.02 9.184C111.106 9.184 111.191 9.184 111.276 9.184C111.362 9.184 111.447 9.184 111.532 9.184ZM115.436 22.784V23.424H105.9L106.22 22.784H115.436Z" fill="#FFFDFD"/>
</g>
<defs>
<clipPath id="clip0_4_14">
<rect width="140" height="40" fill="white"/>
</clipPath>
</defs>
</svg>
