<svg width="40" height="40" viewBox="0 0 40 40" fill="none" xmlns="http://www.w3.org/2000/svg">
<g clip-path="url(#clip0_3_2)">
<path d="M40 20C40 8.9543 31.0457 0 20 0C8.9543 0 0 8.9543 0 20C0 31.0457 8.9543 40 20 40C31.0457 40 40 31.0457 40 20Z" fill="white"/>
<path d="M20.5 5.0003L20.0125 5.8442L18.8968 7.7849L18.7375 8.066L18.8968 8.3474L26.6218 21.7253H19.1968L19.0375 22.0067L17.9218 23.9567L17.4343 24.791H18.4L30.9625 24.8003L31.9282 24.791L31.4407 23.9471L20.9875 5.8442L20.5 5V5.0003ZM18.4282 8.591L17.9407 9.4349L7.4875 27.5468L7 28.382H10.5439L10.7029 28.1006L18.4279 14.7224L21.9811 20.8634L22.1311 21.1445H25.675L25.1875 20.3102L18.9157 9.4352L18.4282 8.591ZM18.3907 15.8285L17.9125 16.6724L11.6311 27.5378L11.1436 28.3817H34L33.5125 27.5378L32.3968 25.5971L32.2282 25.316H16.459L20.0029 19.1753L20.1622 18.8942L20.0029 18.6128L18.8779 16.6724L18.3904 15.8285H18.3907Z" fill="#8C7B1D"/>
<path d="M15.0994 16.8642H8.8074V19.7988H11.3014V30.292H15.0994V16.8642ZM22.6286 29.6685C23.7478 30.2625 25.0105 30.5615 26.4168 30.5615C27.6461 30.5615 28.7515 30.3432 29.7369 29.9085C30.7203 29.4738 31.5405 28.8464 32.1916 28.0282L29.7743 25.841C28.9049 26.8893 27.8507 27.4145 26.6096 27.4145C25.8799 27.4145 25.2308 27.2552 24.6624 26.9346C24.0939 26.6159 23.6514 26.1636 23.3387 25.5833C23.0259 25.0011 22.8686 24.3324 22.8686 23.5771C22.8686 22.8238 23.0259 22.1551 23.3387 21.5729C23.6514 20.9907 24.0939 20.5403 24.6624 20.2197C25.2308 19.901 25.8799 19.7417 26.6096 19.7417C27.8507 19.7417 28.9049 20.2649 29.7743 21.3133L32.1916 19.1261C31.5405 18.3079 30.7203 17.6824 29.7369 17.2477C28.7515 16.813 27.6461 16.5947 26.4168 16.5947C25.0105 16.5947 23.7478 16.8917 22.6286 17.4877C21.5095 18.0817 20.6303 18.9097 19.991 19.9718C19.3518 21.032 19.0312 22.2357 19.0312 23.5771C19.0312 24.9205 19.3518 26.1223 19.991 27.1844C20.6303 28.2465 21.5095 29.0745 22.6286 29.6685Z" fill="#8C7B1D" stroke="#F1E9E9" stroke-width="0.393375"/>
</g>
<defs>
<clipPath id="clip0_3_2">
<rect width="40" height="40" fill="white"/>
</clipPath>
</defs>
</svg>
