<svg width="140" height="40" viewBox="0 0 140 40" fill="none" xmlns="http://www.w3.org/2000/svg">
<g clip-path="url(#clip0_4_14)">
<rect width="140" height="40" fill="white"/>
<ellipse cx="23" cy="20" rx="20" ry="19" fill="#1A1818"/>
<path d="M22.5 7.0003L22.0125 7.8442L20.8968 9.7849L20.7375 10.066L20.8968 10.3474L28.6218 23.7253H21.1968L21.0375 24.0067L19.9218 25.9567L19.4343 26.791H20.4L32.9625 26.8003L33.9282 26.791L33.4407 25.9471L22.9875 7.8442L22.5 7V7.0003ZM20.4282 10.591L19.9407 11.4349L9.4875 29.5468L9 30.382H12.5439L12.7029 30.1006L20.4279 16.7224L23.9811 22.8634L24.1311 23.1445H27.675L27.1875 22.3102L20.9157 11.4352L20.4282 10.591ZM20.3907 17.8285L19.9125 18.6724L13.6311 29.5378L13.1436 30.3817H36L35.5125 29.5378L34.3968 27.5971L34.2282 27.316H18.459L22.0029 21.1753L22.1622 20.8942L22.0029 20.6128L20.8779 18.6724L20.3904 17.8285H20.3907Z" fill="#8C7B1D"/>
<path d="M17.0994 18.8642H10.8074V21.7988H13.3014V32.292H17.0994V18.8642ZM24.6286 31.6685C25.7478 32.2625 27.0105 32.5615 28.4168 32.5615C29.6461 32.5615 30.7515 32.3432 31.7369 31.9085C32.7203 31.4738 33.5405 30.8464 34.1916 30.0282L31.7743 27.841C30.9049 28.8893 29.8507 29.4145 28.6096 29.4145C27.8799 29.4145 27.2308 29.2552 26.6624 28.9346C26.0939 28.6159 25.6514 28.1636 25.3387 27.5833C25.0259 27.0011 24.8686 26.3324 24.8686 25.5771C24.8686 24.8238 25.0259 24.1551 25.3387 23.5729C25.6514 22.9907 26.0939 22.5403 26.6624 22.2197C27.2308 21.901 27.8799 21.7417 28.6096 21.7417C29.8507 21.7417 30.9049 22.2649 31.7743 23.3132L34.1916 21.1261C33.5405 20.3079 32.7203 19.6824 31.7369 19.2477C30.7515 18.813 29.6461 18.5947 28.4168 18.5947C27.0105 18.5947 25.7478 18.8917 24.6286 19.4877C23.5095 20.0817 22.6303 20.9097 21.991 21.9718C21.3518 23.032 21.0312 24.2357 21.0312 25.5771C21.0312 26.9205 21.3518 28.1223 21.991 29.1844C22.6303 30.2465 23.5095 31.0745 24.6286 31.6685Z" fill="#8C7B1D" stroke="#F1E9E9" stroke-width="0.393375"/>
<path d="M55.336 8.184L63.144 28.312C63.464 29.1227 63.8267 29.6667 64.232 29.944C64.6373 30.2 65.0107 30.3387 65.352 30.36V31C64.9253 30.9573 64.4027 30.936 63.784 30.936C63.1653 30.9147 62.5467 30.904 61.928 30.904C61.096 30.904 60.3173 30.9147 59.592 30.936C58.8667 30.936 58.28 30.9573 57.832 31V30.36C58.92 30.3173 59.6133 30.136 59.912 29.816C60.2107 29.4747 60.1467 28.76 59.72 27.672L53.768 11.768L54.28 11.352L48.712 25.816C48.3707 26.6693 48.168 27.3947 48.104 27.992C48.04 28.568 48.0933 29.0267 48.264 29.368C48.456 29.7093 48.7653 29.9547 49.192 30.104C49.64 30.2533 50.1947 30.3387 50.856 30.36V31C50.2587 30.9573 49.6293 30.936 48.968 30.936C48.328 30.9147 47.7307 30.904 47.176 30.904C46.6427 30.904 46.184 30.9147 45.8 30.936C45.4373 30.936 45.096 30.9573 44.776 31V30.36C45.2027 30.2533 45.64 30.008 46.088 29.624C46.536 29.2187 46.9413 28.536 47.304 27.576L54.824 8.184C54.9093 8.184 54.9947 8.184 55.08 8.184C55.1653 8.184 55.2507 8.184 55.336 8.184ZM59.24 21.784V22.424H49.704L50.024 21.784H59.24ZM73.7153 8.344V8.984C72.9899 9.00533 72.4353 9.09067 72.0513 9.24C71.6886 9.368 71.4433 9.624 71.3153 10.008C71.1873 10.3707 71.1233 10.9467 71.1233 11.736V27.608C71.1233 28.376 71.1873 28.952 71.3153 29.336C71.4433 29.72 71.6886 29.976 72.0513 30.104C72.4353 30.2107 72.9899 30.264 73.7153 30.264H76.0513C77.0539 30.264 77.8646 30.1573 78.4833 29.944C79.1233 29.7307 79.6246 29.4 79.9873 28.952C80.3713 28.4827 80.6593 27.864 80.8513 27.096C81.0433 26.328 81.1926 25.3893 81.2993 24.28H82.0353C81.9713 24.9413 81.9393 25.816 81.9393 26.904C81.9393 27.3093 81.9499 27.896 81.9713 28.664C82.0139 29.4107 82.0779 30.1893 82.1633 31C81.0753 30.9573 79.8486 30.936 78.4833 30.936C77.1179 30.9147 75.9019 30.904 74.8353 30.904C74.3659 30.904 73.7579 30.904 73.0113 30.904C72.2859 30.904 71.4966 30.9147 70.6433 30.936C69.7899 30.936 68.9259 30.9467 68.0513 30.968C67.1766 30.968 66.3446 30.9787 65.5553 31V30.36C66.2806 30.3173 66.8246 30.232 67.1873 30.104C67.5713 29.976 67.8273 29.72 67.9553 29.336C68.0833 28.952 68.1473 28.376 68.1473 27.608V11.736C68.1473 10.9467 68.0833 10.3707 67.9553 10.008C67.8273 9.624 67.5713 9.368 67.1873 9.24C66.8246 9.09067 66.2806 9.00533 65.5553 8.984V8.344C66.0033 8.36533 66.5899 8.38667 67.3153 8.408C68.0406 8.42933 68.8193 8.44 69.6513 8.44C70.3979 8.44 71.1339 8.42933 71.8593 8.408C72.6059 8.38667 73.2246 8.36533 73.7153 8.344ZM92.2078 8.344V8.984C91.4824 9.00533 90.9278 9.09067 90.5438 9.24C90.1811 9.368 89.9358 9.624 89.8078 10.008C89.6798 10.3707 89.6158 10.9467 89.6158 11.736V27.608C89.6158 28.376 89.6798 28.952 89.8078 29.336C89.9358 29.72 90.1811 29.976 90.5438 30.104C90.9278 30.2107 91.4824 30.264 92.2078 30.264H94.5438C95.5464 30.264 96.3571 30.1573 96.9758 29.944C97.6158 29.7307 98.1171 29.4 98.4798 28.952C98.8638 28.4827 99.1518 27.864 99.3438 27.096C99.5358 26.328 99.6851 25.3893 99.7918 24.28H100.528C100.464 24.9413 100.432 25.816 100.432 26.904C100.432 27.3093 100.442 27.896 100.464 28.664C100.506 29.4107 100.57 30.1893 100.656 31C99.5678 30.9573 98.3411 30.936 96.9758 30.936C95.6104 30.9147 94.3944 30.904 93.3278 30.904C92.8584 30.904 92.2504 30.904 91.5038 30.904C90.7784 30.904 89.9891 30.9147 89.1358 30.936C88.2824 30.936 87.4184 30.9467 86.5438 30.968C85.6691 30.968 84.8371 30.9787 84.0478 31V30.36C84.7731 30.3173 85.3171 30.232 85.6798 30.104C86.0638 29.976 86.3198 29.72 86.4478 29.336C86.5758 28.952 86.6398 28.376 86.6398 27.608V11.736C86.6398 10.9467 86.5758 10.3707 86.4478 10.008C86.3198 9.624 86.0638 9.368 85.6798 9.24C85.3171 9.09067 84.7731 9.00533 84.0478 8.984V8.344C84.4958 8.36533 85.0824 8.38667 85.8078 8.408C86.5331 8.42933 87.3118 8.44 88.1438 8.44C88.8904 8.44 89.6264 8.42933 90.3518 8.408C91.0984 8.38667 91.7171 8.36533 92.2078 8.344ZM111.532 8.184L119.34 28.312C119.66 29.1227 120.023 29.6667 120.428 29.944C120.834 30.2 121.207 30.3387 121.548 30.36V31C121.122 30.9573 120.599 30.936 119.98 30.936C119.362 30.9147 118.743 30.904 118.124 30.904C117.292 30.904 116.514 30.9147 115.788 30.936C115.063 30.936 114.476 30.9573 114.028 31V30.36C115.116 30.3173 115.81 30.136 116.108 29.816C116.407 29.4747 116.343 28.76 115.916 27.672L109.964 11.768L110.476 11.352L104.908 25.816C104.567 26.6693 104.364 27.3947 104.3 27.992C104.236 28.568 104.29 29.0267 104.46 29.368C104.652 29.7093 104.962 29.9547 105.388 30.104C105.836 30.2533 106.391 30.3387 107.052 30.36V31C106.455 30.9573 105.826 30.936 105.164 30.936C104.524 30.9147 103.927 30.904 103.372 30.904C102.839 30.904 102.38 30.9147 101.996 30.936C101.634 30.936 101.292 30.9573 100.972 31V30.36C101.399 30.2533 101.836 30.008 102.284 29.624C102.732 29.2187 103.138 28.536 103.5 27.576L111.02 8.184C111.106 8.184 111.191 8.184 111.276 8.184C111.362 8.184 111.447 8.184 111.532 8.184ZM115.436 21.784V22.424H105.9L106.22 21.784H115.436Z" fill="#FFFDFD"/>
</g>
<defs>
<clipPath id="clip0_4_14">
<rect width="140" height="40" fill="white"/>
</clipPath>
</defs>
</svg>
